<?xml version="1.0" encoding="utf-8"?>
<!-- Generator: Adobe Illustrator 20.0.0, SVG Export Plug-In . SVG Version: 6.00 Build 0)  -->
<svg version="1.1" xmlns="http://www.w3.org/2000/svg" xmlns:xlink="http://www.w3.org/1999/xlink" x="0px" y="0px"
	 viewBox="0 0 137 80" enable-background="new 0 0 137 80" xml:space="preserve">
<g id="logo_colors">
	<path id="class2_x5F_1" fill="#752B8F" d="M15.2,31.4c-4-5.8-8.9-5-8.9-5c6.5-7.3,15.2-8.8,23.7-7.3C30,19.1,17.9,26.5,15.2,31.4z"
		/>
	<path id="class2_x5F_2" fill="#2B3593" d="M36.7,21.7c-6-3.1-14,2.4-19.1,12.4c0,0,5.9-0.7,9.8,5.5C27.3,39.4,36.7,21.7,36.7,21.7z
		"/>
	<path id="class2_x5F_3" fill="#1D5BA0" d="M36.7,21.7c6,3.1,6.3,12.7,1.2,22.8c0,0-2.9-5.2-10.2-4.7C27.9,39.7,36.7,21.7,36.7,21.7
		z"/>
	<path id="class2_x5F_4" fill="#28A7C5" d="M41.4,44.9c7-0.2,9.4,4.2,9.4,4.2c2.1-9.6-1.8-17.5-8-23.5
		C42.7,25.6,43.8,39.9,41.4,44.9z"/>
</g>
<g id="logo_outline">
	<path id="class_1_x5F_13" fill="#282827" d="M16.5,34l-2.2-1.1c2.7-5.4,6.6-9.7,11-12.3c4.5-2.7,9-3.2,12.6-1.3l-1.1,2.2
		c-2.9-1.5-6.5-1-10.3,1.2C22.6,25,19,29,16.5,34z"/>
	<path id="class_1_x5F_12" fill="#282827" d="M40.8,46.4l-2.2-1.1c2.5-5,3.7-10.2,3.3-14.8c-0.4-4.4-2.2-7.6-5.1-9l1.1-2.2
		c3.6,1.9,5.9,5.8,6.4,11C44.8,35.3,43.5,41,40.8,46.4z"/>
	
		<rect id="class_1_x5F_11" x="1" y="39.4" transform="matrix(0.454 -0.891 0.891 0.454 -21.433 46.2852)" fill="#282827" width="52" height="2.5"/>
	<path id="class_1_x5F_10" fill="#282827" d="M53.5,52.8l-1.6-2c-0.2-0.2-4.4-5.2-12-3.8L39,47.2l-0.4-0.8c-1.4-2.8-3.6-4.4-6.8-4.9
		c-2.4-0.3-4.4,0.2-4.4,0.2L26.3,42L26,41c-0.1-0.3-3-7.6-10.3-6.3l-0.9,0.2L14.3,34c-3.3-6.9-9.8-7.4-10.1-7.4l-2.5-0.2l1.7-1.9
		c4.4-4.9,10.2-7.9,16.7-8.7c5.9-0.7,12.2,0.5,17.9,3.4c5.7,2.9,10.4,7.3,13.3,12.5c3.2,5.7,4.2,12.2,2.8,18.6L53.5,52.8z
		 M42.5,44.3c4.4,0,7.7,1.8,9.5,3.3c1.7-12.7-6.9-22-15.2-26.2c-8.2-4.2-20.8-5.7-30.1,3.1c2.6,0.7,6.7,2.6,9.4,7.6
		c6.2-0.7,10.1,3.8,11.7,7c3.5-0.6,9.4-0.1,12.6,5.4C41.1,44.4,41.8,44.3,42.5,44.3z"/>
	<path id="class_1_x5F_9" fill="#282827" d="M80.5,26.8c-0.9,0-1.8,0.3-2.5,1c-0.8,0.8-1.2,1.9-1.2,3.1v1.7h-1.6v0.7h1.6v12h0.7v-12
		h4.1v-0.7h-4.1v-1.7c0-1,0.4-2,1-2.6c0.5-0.5,1.3-0.8,2-0.8c0.8,0,1.5,0.3,2.2,0.8l0.1,0.1l0.4-0.5L83,27.7
		C82.3,27.2,81.4,26.8,80.5,26.8z"/>
	<path id="class_1_x5F_8" fill="#282827" d="M97.1,38.7c0,3.6-1.9,5.8-5.2,5.9c-2.7,0-4.3-1.7-4.3-4.4v-7.8h-0.7v7.8
		c0,3.2,1.9,5.1,5,5.1c2.5,0,4.3-1.2,5.2-3.3v3.3h0.7V32.3h-0.7V38.7z"/>
	<path id="class_1_x5F_7" fill="#282827" d="M108.3,32.3c-2.5,0-4.4,1.2-5.3,3.2v-3.2h-0.7v12.9h0.7l0-7c0.2-3.3,2.2-5.2,5.3-5.2
		c2.8,0,4.4,1.6,4.4,4.4v7.8h0.7v-7.8C113.4,34.3,111.5,32.3,108.3,32.3z"/>
	<path id="class_1_x5F_6" fill="#282827" d="M71.9,61.8c-0.6,0.5-1.4,0.8-2.2,0.8c-0.6,0-1-0.2-1.4-0.5c-0.5-0.5-0.7-1.3-0.7-2.4
		v-8.4h4.5v-0.7h-4.5v-3H67v3h-1.9v0.7H67v8.4c0,1.3,0.3,2.3,0.9,2.9c0.5,0.4,1.1,0.7,1.8,0.7c0,0,0,0,0.1,0c0.9,0,1.8-0.3,2.6-0.9
		l0.1-0.1L71.9,61.8L71.9,61.8z"/>
	<path id="class_1_x5F_5" fill="#282827" d="M77.5,53.5v-3.1h-0.7v12.9h0.7l0-7.1c0.2-3.2,2-5.1,4.8-5.2l0.1,0v-0.7l-0.1,0
		C80,50.4,78.3,51.5,77.5,53.5z"/>
	<path id="class_1_x5F_4" fill="#282827" d="M92.2,50.4c-1.7,0-3.2,0.6-4.8,1.9l-0.1,0.1l0.4,0.5l0.1-0.1c1.5-1.2,2.9-1.8,4.4-1.8
		c2.6,0,3.9,1.3,3.9,3.7v1.5h-4.6c-3,0-4.8,1.3-4.8,3.4c0,2.2,1.7,3.8,4.2,3.8c2.3,0,4.1-0.9,5.3-2.6l0,2.6h0.7l0-8.6
		C96.8,52,95.1,50.4,92.2,50.4z M91.5,56.9h4.6l0,2.4c-0.9,2.3-2.6,3.4-5.2,3.4c-2.1,0-3.6-1.2-3.6-3.1
		C87.4,57.8,88.9,56.9,91.5,56.9z"/>
	<polygon id="class_1_x5F_3" fill="#282827" points="107.9,62.4 103.1,50.4 103,50.4 102.3,50.4 107.5,63.3 107.6,63.3 108.2,63.3 
		113.5,50.4 112.7,50.4 	"/>
	<path id="class_1_x5F_2" fill="#282827" d="M124.2,50.4c-3.6,0-6.2,2.7-6.2,6.4c0,3.8,2.6,6.5,6.2,6.5c2,0,3.7-0.7,4.9-2l0.1-0.1
		l-0.5-0.5l-0.1,0.1c-1,1.2-2.6,1.8-4.4,1.8c-3.2,0-5.5-2.3-5.5-5.7h11.6v-0.1C130.2,53,127.7,50.4,124.2,50.4z M124.2,51.1
		c3,0,5.1,2,5.3,5.2h-10.8C118.9,53.2,121.2,51.1,124.2,51.1z"/>
	<rect id="class_1_x5F_1" x="134.6" y="44.8" fill="#282827" width="0.7" height="18.5"/>
</g>
</svg>
