<?xml version="1.0" encoding="utf-8"?>
<!-- Generator: Adobe Illustrator 21.1.0, SVG Export Plug-In . SVG Version: 6.00 Build 0)  -->
<svg version="1.1" id="Layer_1" xmlns="http://www.w3.org/2000/svg" xmlns:xlink="http://www.w3.org/1999/xlink" x="0px" y="0px"
	 viewBox="0 0 500 500" style="enable-background:new 0 0 500 500;" xml:space="preserve">
<path id="Books" d="M472.6,329.3L280.2,440.9L38.9,388.1c-6-16.9-7-35.9-1-52.8l246.3,53.8l200.4-116.7c5-3,7-10,4-16
	c-3-5-10-7-16-4L280.2,364.2L38.9,312.3c-7-17.9-7-38.9,0-56.8l245.3,53.8l200.4-116.7c5-3,7-10,4-16l0,0c-3-5-10-7-16-4
	L280.2,284.4L38.9,231.6c-7-19.9-7-41.9,2-61.8c0-1,1-2,2-3c0-1,1-1,1-2l237.3,52.8l189.4-109.7c10-6,8-21.9-4-23.9L255.3,36.1
	L21,158.8c-1,0-1,1-2,2l0,0c-11,25.9-11,55.8-1,81.8c-10,24.9-11,52.8-1,77.8c-10,25.9-9,55.8,2,81.8l2,5l261.2,56.8l200.4-116.7
	c5-3,7-10,4-16C484.6,327.3,477.6,326.3,472.6,329.3z M258.3,60.1l179.5,39.9l-160.5,92.7L85.8,150.8L258.3,60.1z"/>
</svg>
