<?xml version="1.0" encoding="utf-8"?>
<!-- Generator: Adobe Illustrator 21.1.0, SVG Export Plug-In . SVG Version: 6.00 Build 0)  -->
<svg version="1.1" id="Layer_1" xmlns="http://www.w3.org/2000/svg" xmlns:xlink="http://www.w3.org/1999/xlink" x="0px" y="0px"
	 viewBox="0 0 500 500" style="enable-background:new 0 0 500 500;" xml:space="preserve">
<g id="brain">
	<path d="M163.6,243.3c-4.2,11.8-15.2,19.9-28.1,19.9c-6.1,0-11.1,5-11.1,11.1c0,6.1,5,11.1,11.1,11.1c0.1,0,0.1,0,0.2,0
		c24.7,0,46.2-17.8,51-41.8c14.7-2.1,28.4-9,38.8-19.6l0.2-0.2l0.2-0.2c1.7-2.4,2.3-5.4,1.8-8.3c-0.5-2.9-2.2-5.5-4.6-7.1
		c-3.9-2.7-9.1-2.6-12.9,0.2l-0.4,0.4c-8.6,8.8-20.1,13.8-32.4,14c-12.3,0.2-24-4.4-32.8-13c-8.9-8.7-14-20.8-14-33.3
		c0-3-1.2-5.8-3.3-7.9c-2.1-2.1-4.9-3.3-7.9-3.3c0,0,0,0,0,0c-6.1,0-11.1,5-11.1,11.1C108.4,209,131.9,237.1,163.6,243.3z"/>
	<path d="M146.6,367.2c0-0.9,0-1.8,0.1-2.7l0-0.2c0-12.3,4.8-23.9,13.6-32.6c8.7-8.7,20.3-13.4,32.6-13.4c0,0,0.1,0,0.1,0l0.5,0
		l0.1,0c3-0.2,5.7-1.5,7.6-3.7c2-2.2,2.9-5,2.8-8c-0.1-6.1-5-11-11.1-11c-36.9,0.1-67,29.6-68.2,66.1c-1.8-0.1-3.5-0.2-5.3-0.2
		c-6.1,0-11.1,5-11.1,11.1c0,6.1,5,11.1,11.1,11.1c25.2,0,45.8,20.5,46,45.6c-0.9,5.9,3,11.5,8.8,12.7c0.7,0.1,1.4,0.2,2.1,0.2
		c5.2,0,9.9-3.7,10.9-9c0.3-1.3,0.3-2.6,0.1-3.9C187.1,402.3,171.3,378.2,146.6,367.2z"/>
	<path d="M465.5,241.8c0.1-17.4-6.6-34.5-18.5-47.1c9.9-35.3-10.1-72.5-45.4-83.5c-1.2-0.4-2.3-0.7-3.5-1c3.6-11.6,3.1-24-1.6-35.4
		c-5.2-12.5-14.8-22.3-27.1-27.7C339.6,23.9,307.3,10,282.8,10c0,0,0,0,0,0c-12.5,0-24.5,5.4-32.7,14.7
		c-8.2-9.3-20.2-14.7-32.7-14.7c0,0,0,0,0,0c-24.7,0-56.9,13.9-86.3,37.1c-12.3,5.4-21.9,15.2-27.1,27.7
		c-4.7,11.4-5.2,23.8-1.6,35.4c-30,7.7-51.3,34.9-51.4,66.2c0,6.1,0.9,12.1,2.5,17.9c-21.8,22.8-25.2,57.5-8.1,84
		c-7.1,11-10.8,23.7-10.7,36.8c0,24,12.5,46.3,33,58.6c-3.2,35.1,18.2,68,51.7,79.3c10.3,17.1,26.6,29.2,45.9,34.3
		c19.8,5.2,40.4,2.4,58-7.9c11.1-6.5,20.3-15.5,26.8-26.4c9.3,15.5,23.7,27,41,32.9c8,2.7,16.2,4,24.4,4c11.6,0,23.2-2.7,34-8
		c13-6.5,23.8-16.4,31.3-28.8c33.5-11.3,54.9-44.2,51.7-79.3c20.5-12.4,33-34.6,33-58.6c0.1-13.2-3.6-25.9-10.7-36.9
		C461.7,267.4,465.4,254.9,465.5,241.8z M409.5,369.9c5.7,28-11.4,55.8-39,63.2c-3,0.8-5.6,2.9-7,5.6c-9.7,18.5-28.6,29-48.1,29
		c-8.5,0-17.1-2-25.1-6.2c-17.9-9.4-29-27.8-29-48v-6.2c0.1-0.8,0.1-1.7,0-2.5V151.9c0.1-11.8,9.8-21.5,21.6-21.5c0,0,0,0,0,0
		c3,0,5.8-1.2,7.9-3.3c2.1-2.1,3.3-4.9,3.3-7.9c0-6.1-5-11.1-11.1-11.1c-7.6,0-15.1,2-21.6,5.7V54.1c0-11.9,9.6-21.6,21.5-21.6
		c16.3,1.2,32.2,6.2,46.2,14.4c-11.9,4.8-21.7,13.8-27.5,25.5c-1.3,2.7-1.5,5.7-0.5,8.5c1,2.8,3,5.1,5.7,6.4
		c5.5,2.7,12.2,0.4,14.9-5.1c6.8-13.9,22.8-20.3,37.2-14.9l1.2,0.5c15.1,6.5,22,24.1,15.5,39.1c-0.3,0.6-0.5,1.2-0.8,1.7
		c-16.5,1.6-31.8,9.1-43.2,21.2c-11.8,12.6-18.4,29.1-18.6,46.4c0,6.1,5,11.1,11.1,11.1c0,0,0,0,0,0c3,0,5.7-1.2,7.8-3.2
		c2.1-2.1,3.3-4.9,3.3-7.9c0.1-25.4,20.8-46,46.1-46c0,0,0.1,0,0.1,0c12.3,0,23.9,4.9,32.6,13.6c8.7,8.7,13.4,20.3,13.4,32.7
		c0,6-1.2,11.8-3.4,17.3c-1.9,4.5-0.6,9.6,3.2,12.8c19.5,16.3,22.1,45.5,5.8,65c-8.8,10.5-21.7,16.5-35.4,16.5
		c-6.1,0-11.1,5-11.1,11.1c0,6.1,5,11.1,11.1,11.1c0,0,0.1,0,0.1,0c15.1,0,29.8-5,41.7-14.3c2.9,6.1,4.4,12.7,4.3,19.5
		c-0.2,18.2-11.1,34.6-27.7,41.8l0,0C411,359.7,408.4,364.7,409.5,369.9z M237.5,427.3c-6.2,23.5-27.2,40-51.3,40.5l-0.1-0.1l-1.4,0
		c0,0,0,0,0,0c-20.2,0-38.6-11.1-48-29.1c-1.4-2.8-4-4.8-7-5.6c-27.6-7.4-44.7-35.2-39-63.1c1-5.1-1.6-10.2-6.3-12.4
		c-16.6-7.4-27.3-23.9-27.4-42.1c0-6.8,1.5-13.4,4.3-19.5c11.9,9.2,26.5,14.3,41.7,14.3c6.1,0,11.1-5,11.1-11.1s-5-11.1-11.1-11.1
		c-12.3,0-23.9-4.8-32.6-13.5c-8.7-8.7-13.5-20.3-13.5-32.6c0-13.7,6-26.6,16.5-35.4c3.7-3.1,5-8.3,3.2-12.8
		c-4.7-11.4-4.6-23.9,0.2-35.3c4.8-11.4,13.7-20.2,25.1-24.8c23.5-9.6,50.5,1.7,60.1,25.2c2.3,5.5,3.4,11.3,3.4,17.3
		c0,6.1,5,11.1,11.1,11.1c6.1,0,11.1-5,11.1-11.1c-0.1-35.2-27.2-64.7-62.1-68c-3.3-6.5-4.2-13.9-2.3-21c2-7.7,6.9-14.1,13.7-18.2
		c1-0.6,2.1-1.2,3.2-1.6l1.3-0.5c14.5-5.4,30.5,0.9,37.2,14.9c1.3,2.7,3.6,4.7,6.4,5.7c2.8,1,5.8,0.8,8.5-0.5
		c2.7-1.3,4.7-3.6,5.7-6.4c1-2.8,0.8-5.8-0.5-8.5c-5.8-11.6-15.5-20.6-27.4-25.3c14.1-8.2,29.9-13.2,46.2-14.4
		c11.9,0.1,21.5,9.7,21.5,21.6v92.9c-6.5-3.7-14-5.7-21.5-5.7c0,0-0.1,0-0.1,0c-6.1,0-11.1,5-11.1,11.1c0,6.1,5,11.1,11.1,11.1
		c11.9,0,21.6,9.7,21.6,21.6v174.9c-9.5-9.5-21.4-16.5-34.4-20l-0.2-0.1c-6-1.2-11.9,2.8-13,8.8c-1,5.4,2.1,10.8,7.2,12.6l0.3,0.1
		C227.8,368.6,245.1,398.4,237.5,427.3z"/>
	<path d="M392,266.1c0-6.1-5-11.1-11.1-11.1h-2.1l-0.1,0.1c-11.9-0.8-22-8.6-26-19.8c32-6,55.8-34.2,55.8-67.1
		c0-6.1-5-11.1-11.1-11.1c0,0,0,0,0,0c-6.1,0-11.1,5-11.1,11.1c0,12.3-4.7,23.9-13.4,32.7c-8.7,8.7-20.2,13.6-32.6,13.6
		c-0.1,0-0.1,0-0.2,0c-12.4,0-24.5-5.1-33.1-14l-0.1-0.1c-4.4-4.3-11.4-4.2-15.7,0.2c-4.1,4.2-4.2,10.9-0.2,15.3l0.1,0.1
		c10.4,10.6,24.1,17.5,38.8,19.6c4.9,24.2,25.9,41.5,50.9,41.6C387,277.3,392,272.3,392,266.1z"/>
	<path d="M356.3,344.7h-3.5v0.5c-0.6,0-1.2,0.1-1.9,0.1c-1.5-36.4-31.6-65.6-68.3-65.7c-6.1,0-11.1,5-11.1,11.1s5,11.1,11.1,11.1
		c25.4,0,46.1,20.7,46.1,46.1l0,0.2c0,0.9,0.1,1.8,0.1,2.7c-24.7,11-40.6,35.3-40.7,62.5c0,6.1,5,11.1,11.1,11.1s11.1-5,11.1-11.1
		c-0.1-12.3,4.7-23.9,13.3-32.7c8.7-8.8,20.2-13.6,32.5-13.7c0,0,0,0,0,0c6.1,0,11.1-5,11.1-11.1c0-3-1.1-5.8-3.2-7.9
		S359.3,344.7,356.3,344.7z"/>
</g>
</svg>
