<?xml version="1.0" encoding="utf-8"?>
<!-- Generator: Adobe Illustrator 21.1.0, SVG Export Plug-In . SVG Version: 6.00 Build 0)  -->
<svg version="1.1" id="Layer_1" xmlns="http://www.w3.org/2000/svg" xmlns:xlink="http://www.w3.org/1999/xlink" x="0px" y="0px"
	 viewBox="0 0 500 500" style="enable-background:new 0 0 500 500;" xml:space="preserve">
<g id="bulb">
	<path d="M192.4,377.8c0,0,0.6,6.7,0.6,20.4h-0.6v22.5l118.8-13.3c0-3.7,0-6.6,0-8.1c0-12.3,0-18.1,0-20.7v-0.9l0,0l0,0
		c18.5-48,81.9-183.4,81.9-224.7C393.1,74.1,329,10,250,10c-79,0-143.1,64.1-143.1,143.1c0,47.1,65.6,176.8,85.9,225L192.4,377.8z
		 M250,30.1c67.8,0.1,122.8,55,122.9,122.8c0,34.9-57.6,158.9-83,223.4l-75.4,0.9c-26.6-62.9-87.3-184-87.3-224.3
		C127.2,85,182.2,30,250,30.1L250,30.1z"/>
	<path d="M192.4,442.6c-0.8,4.3-0.4,8.8,1.2,13l117.2-13c0-0.7,0-1.4,0-2.1c0.5-5.2,0.7-10.4,0.6-15.7l-118.9,13.3V442.6
		L192.4,442.6z"/>
	<path d="M253,490c38.4,0,51.3-15.6,55.5-29.6l-105.7,11.7C211.6,481.6,226.5,490,253,490z"/>
</g>
</svg>
