<?xml version="1.0" encoding="utf-8"?>
<!-- Generator: Adobe Illustrator 21.1.0, SVG Export Plug-In . SVG Version: 6.00 Build 0)  -->
<svg version="1.1" id="Layer_1" xmlns="http://www.w3.org/2000/svg" xmlns:xlink="http://www.w3.org/1999/xlink" x="0px" y="0px"
	 viewBox="0 0 500 500" style="enable-background:new 0 0 500 500;" xml:space="preserve">
<g id="calendar_1_">
	<path id="calendar" d="M453,33h-38V10h-30v23H115V10H85v23H47c-21,0-37,16-37,37v383c0,20,16,37,37,37h406c20,0,37-16,37-37V70
		C490,49,474,33,453,33z M453,467H47c-8,0-14-6-14-14V130h434v323C467,461,461,467,453,467z"/>
	<g>
		<path d="M169.3,360.2c0-30.1,18-51.5,47.4-64l-0.4-1.1c-26.5-12.5-37.9-33.1-37.9-53.7c0-37.9,32-63.6,73.9-63.6
			c46.3,0,69.5,29,69.5,58.8c0,20.2-9.9,41.9-39.3,55.9v1.1c29.8,11.8,48.2,32.7,48.2,61.8c0,41.5-35.7,69.5-81.2,69.5
			C199.5,424.9,169.3,395.1,169.3,360.2z M298,358.7c0-29-20.2-43-52.6-52.2c-27.9,8.1-43,26.5-43,49.3
			c-1.1,24.3,17.3,45.6,47.8,45.6C279.2,401.3,298,383.3,298,358.7z M209,239.2c0,23.9,18,36.8,45.6,44.1
			c20.6-7,36.4-21.7,36.4-43.4c0-19.1-11.4-39-40.4-39C223.7,201,209,218.7,209,239.2z"/>
	</g>
</g>
</svg>
