<?xml version="1.0" encoding="utf-8"?>
<!-- Generator: Adobe Illustrator 21.1.0, SVG Export Plug-In . SVG Version: 6.00 Build 0)  -->
<svg version="1.1" id="Layer_1" xmlns="http://www.w3.org/2000/svg" xmlns:xlink="http://www.w3.org/1999/xlink" x="0px" y="0px"
	 viewBox="0 0 500 500" style="enable-background:new 0 0 500 500;" xml:space="preserve">
<g id="ClassAvg">
	<path d="M105,270c33,0,61-27,61-61s-27-61-61-61s-61,27-61,61S71,270,105,270z M64,209c0-22,18-40,40-40s40,18,40,40s-18,40-40,40
		S64,231,64,209z"/>
	<path d="M250,254c46,0,83-37,83-83s-37-84-83-84s-83,37-83,83S204,254,250,254z M250,107c35,0,63,28,63,63s-28,63-63,63
		s-63-28-63-63S215,107,250,107z"/>
	<path d="M395,270c33,0,61-27,61-61s-27-61-61-61s-61,27-61,61S362,270,395,270z M355,209c0-22,18-40,40-40s40,18,40,40
		s-18,40-40,40C373,250,355,231,355,209z"/>
	<path d="M380,388c0-1,0-1,0-2v-1v-1c0,0,0,0,0-1h110v-10c0-52-43-95-95-95c-21,0-41,7-58,20c-49-45-125-45-175,0
		c-40-31-99-25-131,15c-14,17-21,38-21,60v10h110c0,4,0,7,0,11v19l0,0h260v-19l0,0c0-1,0-2,0-3v-1C380,389,380,388,380,388z
		 M370,345c0-1-1-1-1-2l0,0c-5-11-11-21-18-30c15-11,33-16,52-14c20,2,37,12,50,28c8,10,13,23,15,36h-92C375,356,373,350,370,345z
		 M142,390c2-58,50-105,108-105c59,0,106,47,108,105H142z M125,356c0,1,0,1-1,2c0,1,0,2-1,2c0,0,0,0,0,1c0,0,0,0,0,1H31
		c3-18,12-35,26-47c15-13,35-18,54-16c13,1,26,6,36,14C138,325,131,340,125,356C126,356,126,356,125,356z"/>
</g>
</svg>
