<?xml version="1.0" encoding="utf-8"?>
<!-- Generator: Adobe Illustrator 21.1.0, SVG Export Plug-In . SVG Version: 6.00 Build 0)  -->
<svg version="1.1" id="Layer_1" xmlns="http://www.w3.org/2000/svg" xmlns:xlink="http://www.w3.org/1999/xlink" x="0px" y="0px"
	 viewBox="0 0 500 500" style="enable-background:new 0 0 500 500;" xml:space="preserve">
<g id="course_store">
	<path d="M466.5,336.3L347.8,114.8l0,0c-10-18-9-38.9,1-55.9c11-17,28.9-27.9,48.9-27.9l0,0c27.9,0,50.9,23,49.9,50.9
		c-1,27.9-24,48.9-50.9,48.9h-13c-3,0-5,2-5,5v10c0,3,2,5,5,5h13c38.9,0,70.9-30.9,70.9-69.9S436.6,10,397.7,10H236l0,0H125.3
		c-36.9,0-69.9,19-89.8,50.9c-19,31.9-20,69.9-2,102.8l118.8,221.5c10,18,9,38.9-1,55.9c-10,17-28.9,27.9-48.9,27.9l0,0
		c-27.9,0-50.9-23-49.9-50.9c1-27.9,24-48.9,50.9-48.9h13c3,0,5-2,5-5v-10c0-3-2-5-5-5h-13c-38.9,0-70.9,30.9-70.9,69.9
		S63.4,490,102.3,490H264l0,0h109.8c36.9,0,72.8-19,90.8-51.9C483.5,407.2,484.5,369.3,466.5,336.3z M446.6,429.1
		c-15,25.9-41.9,40.9-71.9,40.9H154.2c5-5,10-11,14-17c14-24,15-51.9,2-75.8L51.4,154.7c-14-25.9-13-56.9,2-82.8S95.3,31,125.3,31
		h220.5c-5,5-10,11-14,17c-14,23-15,51.9-2,75.8l118.8,221.5C463.6,372.2,462.6,403.2,446.6,429.1z"/>
	<path d="M270,316.4l44.9,26.9c3,2,7,2,10,0c2-1,4-3,5-6c0-1,0-2,0-2l2-51.9c0-2,0-3-1-5L227,87.8l0,0l0,0l-21-37.9c-3-5-8-6-13-4
		l-46.9,24.9c-2,1-4,3-5,6c-1,2,0,5,1,7l21,37.9l0,0l0,0L266,312.4C267,314.4,268,315.4,270,316.4z M164.2,82.8l29.9-16l12,21
		l-29.9,16L164.2,82.8z M214.1,104.8l96.8,179.6l-1,32.9l-28.9-17l-96.8-179.6L214.1,104.8z"/>
	<path d="M401.7,354.3H213.1c-3,0-5,2-5,5v10c0,3,2,5,5,5h188.6c3,0,5-2,5-5v-10C406.7,356.3,404.7,354.3,401.7,354.3z"/>
</g>
</svg>
