<?xml version="1.0" encoding="utf-8"?>
<!-- Generator: Adobe Illustrator 21.1.0, SVG Export Plug-In . SVG Version: 6.00 Build 0)  -->
<svg version="1.1" id="Layer_1" xmlns="http://www.w3.org/2000/svg" xmlns:xlink="http://www.w3.org/1999/xlink" x="0px" y="0px"
	 viewBox="0 0 500 500" style="enable-background:new 0 0 500 500;" xml:space="preserve">
<g id="course">
	<path d="M466.3,10H341.8c-14.1,0-25.1,11-25.1,25.1v61.3H183.1V35.1c0-14.1-11-25.1-25.1-25.1H34.5C20.5,10,9.4,21,9.4,35.1v429.8
		c0,14.1,11,25.1,25.1,25.1H159c2,0,3,0,4,0l0,0h173.7l0,0c1,0,3,0,4,0h124.5c14.1,0,25.1-11,25.1-25.1V35.1
		C491.4,21,480.4,10,466.3,10z M159,469.9H34.5c-2,0-4-2-4-4V35.1c0-2,2-4,4-4H159c2,0,4,2,4,4v61.3v369.5
		C163.1,467.9,161.1,469.9,159,469.9z M317.7,469.9H183.1v-4V116.4h133.6v349.5v4H317.7z M471.3,464.9c0,2-2,4-4,4H341.8
		c-2,0-4-2-4-4V96.4V35.1c0-2,2-4,4-4h124.5c2,0,4,2,4,4L471.3,464.9L471.3,464.9z"/>
	<path d="M205.2,429.7h90.4c6,0,10-4,10-10l0,0c0-6-4-10-10-10h-90.4c-6,0-10,4-10,10l0,0C195.2,425.7,199.2,429.7,205.2,429.7z"/>
	<path d="M205.2,191.8h90.4c6,0,10-4,10-10l0,0c0-6-4-10-10-10h-90.4c-6,0-10,4-10,10l0,0C195.2,187.7,199.2,191.8,205.2,191.8z"/>
	<path d="M362.9,381.5h83.3c6,0,10-4,10-10l0,0c0-6-4-10-10-10h-83.3c-6,0-10,4-10,10l0,0C352.9,377.5,356.9,381.5,362.9,381.5z"/>
	<path d="M362.9,107.4h83.3c6,0,10-4,10-10l0,0c0-6-4-10-10-10h-83.3c-6,0-10,4-10,10l0,0C352.9,102.4,356.9,107.4,362.9,107.4z"/>
	<path d="M362.9,418.7h83.3c6,0,10-4,10-10l0,0c0-6-4-10-10-10h-83.3c-6,0-10,4-10,10l0,0C352.9,414.7,356.9,418.7,362.9,418.7z"/>
	<path d="M54.6,381.5H138c6,0,10-4,10-10l0,0c0-6-4-10-10-10H54.6c-6,0-10,4-10,10l0,0C44.6,377.5,48.6,381.5,54.6,381.5z"/>
	<path d="M54.6,107.4H138c6,0,10-4,10-10l0,0c0-6-4-10-10-10H54.6c-6,0-10,4-10,10l0,0C44.6,102.4,48.6,107.4,54.6,107.4z"/>
	<path d="M54.6,418.7H138c6,0,10-4,10-10l0,0c0-6-4-10-10-10H54.6c-6,0-10,4-10,10l0,0C44.6,414.7,48.6,418.7,54.6,418.7z"/>
</g>
</svg>
