<?xml version="1.0" encoding="utf-8"?>
<!-- Generator: Adobe Illustrator 21.1.0, SVG Export Plug-In . SVG Version: 6.00 Build 0)  -->
<svg version="1.1" id="Layer_1" xmlns="http://www.w3.org/2000/svg" xmlns:xlink="http://www.w3.org/1999/xlink" x="0px" y="0px"
	 viewBox="0 0 500 500" style="enable-background:new 0 0 500 500;" xml:space="preserve">
<g id="Download">
	<path d="M136,223.4l114,112l114-112c6-6,6-16,0-23l0,0c-6-6-16-6-23,0l-76,75v-235c0-9-7-16-16-16l0,0c-9,0-16,7-16,16v234l-75-74
		c-6-6-16-6-23,0l0,0C130,206.4,130,216.4,136,223.4z"/>
	<path d="M485,319.4l-105-172c-6-11-18-17-30-17h-57c-7,0-12,6-12,12l0,0c0,7,6,12,12,12h58l105,173h-77c-6,0-11,3-15,7l-48,60
		c-4,4-9,7-15,7H199c-6,0-11-3-15-7l-48-60c-4-4-9-7-15-7H44l105-173h58c7,0,12-6,12-12l0,0c0-7-6-12-12-12h-57c-12,0-24,6-30,17
		l-105,172c-3,6-5,12-5,18v103c0,19,16,35,35,35h410c19,0,35-16,35-35v-103C490,331.4,488,325.5,485,319.4z"/>
</g>
</svg>
