<?xml version="1.0" encoding="utf-8"?>
<!-- Generator: Adobe Illustrator 21.1.0, SVG Export Plug-In . SVG Version: 6.00 Build 0)  -->
<svg version="1.1" id="Layer_1" xmlns="http://www.w3.org/2000/svg" xmlns:xlink="http://www.w3.org/1999/xlink" x="0px" y="0px"
	 viewBox="0 0 500 500" style="enable-background:new 0 0 500 500;" xml:space="preserve">
<path id="drive" d="M485,266.5l-105-172c-6-11-18-17-30-17H150c-12,0-24,6-30,17l-105,172c-3,6-5,12-5,18v103c0,19,16,35,35,35h410
	c19,0,35-16,35-35v-103C490,278.5,488,272.6,485,266.5z M379,274.5c-6,0-11,3-15,7l-48,60c-4,4-9,7-15,7H199c-6,0-11-3-15-7l-48-60
	c-4-4-9-7-15-7H44l105-173h202l105,173H379z"/>
</svg>
