<?xml version="1.0" encoding="utf-8"?>
<!-- Generator: Adobe Illustrator 21.1.0, SVG Export Plug-In . SVG Version: 6.00 Build 0)  -->
<svg version="1.1" id="Layer_1" xmlns="http://www.w3.org/2000/svg" xmlns:xlink="http://www.w3.org/1999/xlink" x="0px" y="0px"
	 viewBox="0 0 500 500" style="enable-background:new 0 0 500 500;" xml:space="preserve">
<g id="Edit">
	<path d="M242,324l204-204l0,0l41-41c2-2,3-4,3-7s-1-6-3-8l0,0l-50-50c-2-2-5-3-8-3c-3,0-6,1-8,3l-41,41l0,0l0,0L177,259
		c-1,1-2,3-3,5l-17,67c-1,4,0,8,3,10c2,2,5,3,8,3c1,0,2,0,3,0l67-17C239,327,241,326,242,324z M429,37l35,35l-26,26l-35-35L429,37z
		 M182,319l12-47L388,78l35,35L229,307L182,319z"/>
	<path d="M10,50v412c0,15,12,27,27,27h412c15,0,27-12,27-27V145l-24,24v293c0,1-1,3-3,3H37c-1,0-3-1-3-3V50c0-1,1-3,3-3h319l24-24
		H37C22,24,10,36,10,50z"/>
</g>
</svg>
