<?xml version="1.0" encoding="utf-8"?>
<!-- Generator: Adobe Illustrator 21.1.0, SVG Export Plug-In . SVG Version: 6.00 Build 0)  -->
<svg version="1.1" id="Layer_1" xmlns="http://www.w3.org/2000/svg" xmlns:xlink="http://www.w3.org/1999/xlink" x="0px" y="0px"
	 viewBox="0 0 500 500" style="enable-background:new 0 0 500 500;" xml:space="preserve">
<g id="error">
	<path d="M486.5,75c-19.4,3.9-37.8,5.6-55.2,5.6C339.4,80.6,275.8,33.3,250,10c-25.8,23.3-89.4,70.6-181.3,70.6
		c-17.4,0-35.8-1.7-55.2-5.6c0,0-21.7,293.2,236.5,415C508.1,368.2,486.5,75,486.5,75z M441.6,231.4
		c-14.8,48.3-36.8,91.6-65.4,128.5C343,403,300.5,437.7,250,463.3c-50.5-25.6-93-60.3-126.2-103.4C95.3,323,73.3,279.7,58.4,231.4
		c-16.2-52.9-20.3-100.5-21.1-128.5c10.5,1.1,21,1.7,31.4,1.7c84.9,0,148-37.5,181.3-63.3c33.3,25.8,96.4,63.3,181.3,63.3
		c10.4,0,20.9-0.6,31.4-1.7C461.9,130.9,457.8,178.6,441.6,231.4z"/>
	<circle cx="250" cy="368.9" r="18.3"/>
	<path d="M250,131.1L250,131.1c-10.8,0-19.3,9.1-18.8,19.9l8.5,153.7c0.3,5.5,4.8,9.8,10.3,9.8c5.5,0,10-4.3,10.3-9.8l8.5-153.7
		C269.3,140.2,260.8,131.1,250,131.1z"/>
</g>
</svg>
