<?xml version="1.0" encoding="utf-8"?>
<!-- Generator: Adobe Illustrator 21.1.0, SVG Export Plug-In . SVG Version: 6.00 Build 0)  -->
<svg version="1.1" id="Layer_1" xmlns="http://www.w3.org/2000/svg" xmlns:xlink="http://www.w3.org/1999/xlink" x="0px" y="0px"
	 viewBox="0 0 500 500" style="enable-background:new 0 0 500 500;" xml:space="preserve">
<g id="Expand">
	<path d="M21.4,147c6,0,11-5,11-11V49l120,120c2,2,5,3,8,3s6-1,8-3c2-2,3-5,3-8s-1-6-3-8L48.4,33h87c6,0,11-5,11-11s-4-12-10-12
		h-115c-6,0-11,5-11,11v114C10.4,142,15.4,147,21.4,147z"/>
	<path d="M479.4,353c-6,0-11,5-11,11v87l-124-123c-4-4-12-4-16,0c-2,2-3,5-3,8c0,3,1,6,3,8l123,123h-87c-6,0-11,5-11,11
		c0,6,5,11,11,11h114c6,0,11-5,11-11V364C490.4,358,485.4,353,479.4,353z"/>
	<path d="M164.4,324c-3,0-6,1-8,3l-123,124v-87c0-6-5-11-11-11s-12,5-12,11v114c0,7,5,12,11,12h114c6,0,11-5,11-11c0-6-5-11-11-11
		h-86l123-123c2-2,3-5,3-8c0-3-1-6-3-8C170.4,325,167.4,324,164.4,324z"/>
	<path d="M479.4,10h-115c-6,0-11,5-11,11s5,11,11,11h87l-120,120c-2,2-3,5-3,8s1,6,3,8s5,3,8,3c3,0,6-1,8-3l120-120v87
		c0,6,5,11,11,11c6,0,11-5,11-11V21C490.4,15,485.4,10,479.4,10z"/>
</g>
</svg>
