<?xml version="1.0" encoding="utf-8"?>
<!-- Generator: Adobe Illustrator 21.1.0, SVG Export Plug-In . SVG Version: 6.00 Build 0)  -->
<svg version="1.1" id="Layer_1" xmlns="http://www.w3.org/2000/svg" xmlns:xlink="http://www.w3.org/1999/xlink" x="0px" y="0px"
	 viewBox="0 0 500 500" style="enable-background:new 0 0 500 500;" xml:space="preserve">
<g id="facebook">
	<path d="M369.5,10h-62c-70,0-115,46-115,118v54h-63c-5,0-10,4-10,10v79c0,5,4,10,10,10h63v199c0,5,4,10,10,10h82c5,0,10-4,10-10
		V281h73c5,0,10-4,10-10v-79c0-3-1-5-3-7s-4-3-7-3h-73v-46c0-22,5-33,34-33h42c5,0,10-4,10-10V20C379.5,14,374.5,10,369.5,10z"/>
</g>
</svg>
