<?xml version="1.0" encoding="utf-8"?>
<!-- Generator: Adobe Illustrator 21.1.0, SVG Export Plug-In . SVG Version: 6.00 Build 0)  -->
<svg version="1.1" id="Layer_1" xmlns="http://www.w3.org/2000/svg" xmlns:xlink="http://www.w3.org/1999/xlink" x="0px" y="0px"
	 viewBox="0 0 500 500" style="enable-background:new 0 0 500 500;" xml:space="preserve">
<g id="Grade">
	<g>
		<path d="M303,344h-20c-2,0-4-1-6-2c-1-1-3-3-3-5l-18-47h-87l-19,48c-1,2-2,3-3,4c-2,1-4,2-6,2h-20l78-194h26L303,344z M248,272
			l-30-79c-1-2-2-5-3-8c-1-3-2-6-3-10c-2,6-4,12-6,18l-30,79H248z"/>
	</g>
	<g>
		<path d="M385,202h-35v37h-12v-37h-35v-12h35v-36h12v36h35V202z"/>
	</g>
	<path d="M250,490C117,490,10,383,10,250h20c0,122,99,220,220,220s220-99,220-220S372,30,250,30l0,0V10c133,0,240,107,240,240
		c0,64-25,125-70,170S314,490,250,490z"/>
</g>
</svg>
