<?xml version="1.0" encoding="utf-8"?>
<!-- Generator: Adobe Illustrator 21.1.0, SVG Export Plug-In . SVG Version: 6.00 Build 0)  -->
<svg version="1.1" id="Layer_1" xmlns="http://www.w3.org/2000/svg" xmlns:xlink="http://www.w3.org/1999/xlink" x="0px" y="0px"
	 viewBox="0 0 500 500" style="enable-background:new 0 0 500 500;" xml:space="preserve">
<g id="linkedin">
	<path id="LinkedIn" d="M490,301.6v177H387v-165c0-42-15-70-52-70c-28,0-45,19-53,38c-3,7-3,16-3,25v173H176c0,0,1-280,0-309h103v44
		c0,0,0,1-1,1h1v-1c14-21,38-51,93-51C439,162.5,490,206.6,490,301.6z M68,20.5c-35,0-58,23-58,53s22,53,57,53h1c36,0,58-24,58-53
		C125,43.6,103,20.5,68,20.5z M16,478.6h103v-309H16V478.6z"/>
</g>
</svg>
