<?xml version="1.0" encoding="utf-8"?>
<!-- Generator: Adobe Illustrator 21.1.0, SVG Export Plug-In . SVG Version: 6.00 Build 0)  -->
<svg version="1.1" id="Layer_1" xmlns="http://www.w3.org/2000/svg" xmlns:xlink="http://www.w3.org/1999/xlink" x="0px" y="0px"
	 viewBox="0 0 500 500" style="enable-background:new 0 0 500 500;" xml:space="preserve">
<g id="Lock">
	<path d="M260,352.7v-44.1c0-6-5-10-10-10c-6,0-10,5-10,10v44.1c-9,5-16,14-16,24.1c0,15,12,27.1,27.1,27.1c15,0,27.1-12,27.1-27.1
		C277.1,365.7,270,356.7,260,352.7z"/>
	<path d="M400.3,210.4h-21v-70.1C379.3,68.1,322.2,10,250,10S120.7,68.1,120.7,139.2v70.1h-21c-22,0-39.1,17-39.1,39.1v202.4
		c0,22,17,39.1,39.1,39.1h300.6c22,0,39.1-17,39.1-39.1V249.4C439.4,227.4,422.4,210.4,400.3,210.4z M142.8,139.2
		C142.8,80.1,190.9,32,250,32s107.2,48.1,107.2,107.2v70.1H142.8V139.2z M418.4,451.9c0,9-8,17-17,17H99.7c-9,0-17-8-17-17V249.4
		c0-9,8-17,17-17h300.6c10,0,17,8,17,17L418.4,451.9L418.4,451.9z"/>
</g>
</svg>
