<?xml version="1.0" encoding="utf-8"?>
<!-- Generator: Adobe Illustrator 21.1.0, SVG Export Plug-In . SVG Version: 6.00 Build 0)  -->
<svg version="1.1" id="Layer_1" xmlns="http://www.w3.org/2000/svg" xmlns:xlink="http://www.w3.org/1999/xlink" x="0px" y="0px"
	 viewBox="0 0 500 500" style="enable-background:new 0 0 500 500;" xml:space="preserve">
<style type="text/css">
	.st0{fill:#39414A;}
</style>
<g>
	<path class="st0" d="M477.3,100.8c-1.4,10.4-3.5,22.1-6.9,31.8c-4.8,11.7-11.7,18-20.7,23.5c-19.3,11.7-40.1,20-60.8,24.2
		c-20.7,4.1-41.5,6.2-61.5,16.6c-18,9.7-33.9,22.8-46.3,41.5c-14.5,20.7-22.8,46.3-24.2,73.9c-0.7,10.4,12.4,10.4,13.1,0
		c2.1-50.4,33.2-90.5,71.2-105c13.7-5.7,28-7.8,42.5-9.9c26.7-3.8,52.3-13.2,74.7-28.2c1-0.7,2-1.4,3-2
		c18.7-13.8,24.9-37.3,28.3-62.2C491.9,94.6,478.7,90.5,477.3,100.8z"/>
	<path class="st0" d="M158.1,206.5c37.3,15.2,69.1,54.6,71.2,105c0.7,10.4,13.8,10.4,13.1,0c-1.4-26.9-9.7-52.5-23.5-74.6
		c-12.4-18.7-29-32.5-46.3-41.5c-19.3-10.4-40.8-12.4-61.5-16.6c-21.4-4.1-41.5-12.4-60.8-24.2c-9-5.5-16.6-11.7-20.7-23.5
		c-3.5-9.7-5.5-20.7-6.9-31.8c-1.4-10.4-14.5-5.5-12.4,3.5c3.5,25.6,9,49.1,28.3,62.2c18,12.4,37.3,21.4,57.4,26.9
		C116.6,197.6,138.1,198.9,158.1,206.5z"/>
	<path class="st0" d="M228.6,337.1l14.5,65.6c0,4.8,15.2,4.8,15.2,0l15.9-65C274.2,330.9,228.6,330.2,228.6,337.1z"/>
	<path class="st0" d="M137.4,226.6c-39.2,0-71.2,31.9-71.2,71.2s31.9,71.2,71.2,71.2s71.2-31.9,71.2-71.2S176.6,226.6,137.4,226.6z
		 M137.4,355.1c-31.6,0-57.4-25.7-57.4-57.4c0-31.6,25.7-57.4,57.4-57.4c31.6,0,57.4,25.7,57.4,57.4
		C194.7,329.4,169,355.1,137.4,355.1z"/>
	<path class="st0" d="M364,226.6c-39.2,0-71.2,31.9-71.2,71.2s31.9,71.2,71.2,71.2s71.2-31.9,71.2-71.2S403.3,226.6,364,226.6z
		 M364,355.1c-31.6,0-57.4-25.7-57.4-57.4c0-31.6,25.7-57.4,57.4-57.4s57.4,25.7,57.4,57.4C421.4,329.4,395.6,355.1,364,355.1z"/>
</g>
</svg>
