<?xml version="1.0" encoding="utf-8"?>
<!-- Generator: Adobe Illustrator 21.1.0, SVG Export Plug-In . SVG Version: 6.00 Build 0)  -->
<svg version="1.1" id="Layer_1" xmlns="http://www.w3.org/2000/svg" xmlns:xlink="http://www.w3.org/1999/xlink" x="0px" y="0px"
	 viewBox="0 0 500 500" style="enable-background:new 0 0 500 500;" xml:space="preserve">
<g id="Pending">
	<path d="M116,189l-7-22l-36,11C111,78,224,27,324,65c60,23,104,72,119,134c2,6,8,10,14,9l0,0c7-1,11-8,9-15c-8-31-23-60-43-85
		c-24-29-55-51-91-65C220,0,93,57,51,170v1l-21-34l-20,12l37,61L116,189z"/>
	<path d="M453,290l-69,21l7,22l36-11c-38,100-151,151-251,113c-60-23-104-72-119-134c-2-6-8-10-14-9l0,0c-7,1-11,8-9,15
		c8,31,23,60,43,85c24,29,55,51,91,65c112,43,239-14,281-127v-1l21,34l20-12L453,290z"/>
</g>
</svg>
