<?xml version="1.0" encoding="utf-8"?>
<!-- Generator: Adobe Illustrator 21.1.0, SVG Export Plug-In . SVG Version: 6.00 Build 0)  -->
<svg version="1.1" id="Layer_1" xmlns="http://www.w3.org/2000/svg" xmlns:xlink="http://www.w3.org/1999/xlink" x="0px" y="0px"
	 viewBox="0 0 500 500" style="enable-background:new 0 0 500 500;" xml:space="preserve">
<path id="Search" d="M214.4,10C102.1,10,9.9,102.1,9.9,214.4c0,113.2,92.2,204.4,204.4,204.4c49.1,0,97.2-18,134.3-50.1l2-2
	l120.3,120.3c2,2,5,3,8,3s6-1,8-3c4-4,4-12,0-16L366.7,350.7l2-2c32.1-37.1,50.1-85.2,50.1-134.3C419.8,102.1,327.6,10,214.4,10z
	 M214.4,396.8C114.2,396.8,33,315.6,33,215.4S114.2,34,214.4,34s181.4,81.2,181.4,181.4C395.8,314.6,314.6,396.8,214.4,396.8z"/>
</svg>
