<?xml version="1.0" encoding="utf-8"?>
<!-- Generator: Adobe Illustrator 21.1.0, SVG Export Plug-In . SVG Version: 6.00 Build 0)  -->
<svg version="1.1" id="Layer_1" xmlns="http://www.w3.org/2000/svg" xmlns:xlink="http://www.w3.org/1999/xlink" x="0px" y="0px"
	 viewBox="0 0 500 500" style="enable-background:new 0 0 500 500;" xml:space="preserve">
<g id="c_x5F_settings_1_">
	<path d="M483.7,238.1l-28.9-5c-5-1-9-5-10-10l0,0c-1-5,2-10,7-12l25.9-12c3-1,5-5,4-8l-2-7c-1-3-4-6-8-5l-28.9,3c-5,0-10-2-12-7
		l0,0c-2-5-1-10,3-12.9l21.9-18.9c3-2,3-6,2-9l-4-7c-2-3-5-4-9-3l-26.9,10c-5,2-10,0-12.9-4l0,0c-3-4-3-10,0-13.9L422,92.8
		c2-3,2-7-1-9l-5-5c-2-2-6-3-9-1l-23.9,16.9c-4,3-10,3-13.9,0l0,0c-3-5-5-10-3-14.9l10-26.9c1-3,0-7-3-9l-6-4c-3-2-7-1-9,2
		l-18.9,21.9c-3,4-9,6-12.9,4l0,0c-5-2-8-7-7-12l3-28.9c0-4-2-7-5-8l-7-2c-3-1-7,1-8,4l-12,25.9c-2,5-7,7-12,7l0,0c-5-1-9-5-10-10
		l-5-28.9c-3-2-6-5-9-5h-8c-4,0-7,3-7,6l-5,28.9c-1,5-5,9-10,10l0,0c-5,1-10-2-12-7l-12-26.9c-1-3-5-5-8-4l-7,2c-3,1-6,4-5,8l3,28.9
		c0,5-2,10-7,12l0,0c-5,2-10,1-12.9-3L145.1,43c-4-4-8-4-11-3l-7,4c-3,2-4,5-3,9l10,26.9c2,5,0,10-4,12.9l0,0c-4,3-10,3-13.9,0
		L93.3,76.8c-3-2-7-2-9,1l-5,5c-3,2-3,6-1,9l16.9,23.9c3,4,3,10,0,13.9l0,0c-4,4-9,6-13.9,4l-26.9-10c-3-1-7,0-9,3l-4,6
		c-2,3-1,7,2,9l21.9,18.9c4,3,6,9,4,12.9l0,0c-2,5-7,8-12,7l-28.9-3c-4,0-7,2-8,5l-2,7c-1,3,1,7,4,8l25.9,12c5,2,7,7,7,12l0,0
		c-1,5-5,9-10,10l-28.9,5c-2,3-5,6-5,9v4v4c0,4,3,7,6,7l28.9,5c5,1,9,5,10,10l0,0c1,5-2,10-7,12l-26.9,12c-3,1-5,5-4,8l2,7
		c1,3,4,6,8,5l28.9-3c5,0,10,2,12,7l0,0c2,5,1,10-3,12.9l-21.9,18.9c-4,4-4,8-3,11l4,7c2,3,5,4,9,3l26.9-10c5-2,10,0,12.9,4l0,0
		c3,4,3,10,0,13.9l-16.9,23.9c-2,3-2,7,1,9l5,5c2,2,6,3,9,1l23.9-16.9c4-3,10-3,13.9,0l0,0c4,3,6,8,4,12.9l-10,26.9c-1,3,0,7,3,9
		l7,4c3,2,7,1,9-2l18.9-21.9c3-4,9-5,12.9-3l0,0c5,2,8,7,7,12l-3,28.9c0,3,2,7,5,8l7,2c3,1,7-1,8-4l12-25.9c2-5,7-7,12-7l0,0
		c5,1,9,5,10,10l5,28.9c1,3,4,6,7,6h8c4,0,7-3,7-6l5-28.9c1-5,5-9,10-10l0,0c5-1,10,2,12,7l12,25.9c1,3,5,5,8,4l7-2c3-1,6-4,5-8
		l-3-28.9c0-5,2-10,7-12l0,0c5-2,10-1,12.9,3l18.9,21.9c2,3,6,3,9,2l7-4c3-2,4-5,3-9l-10-26.9c-2-5,0-10,4-12.9l0,0c4-3,10-3,13.9,0
		l23.9,16.9c3,2,7,2,9-1l5-5c2-2,3-6,1-9L403,383.5c-3-4-3-10,0-13.9l0,0c3-4,8-6,12.9-4l26.9,10c3,1,7,0,9-3l4-7c2-3,1-7-2-9
		l-21.9-18.9c-4-3-5-9-3-12.9l0,0c2-5,7-8,12-7l28.9,3c3,0,7-2,8-5l2-7c1-3-1-7-4-8l-25.9-12c-5-2-7-7-7-12l0,0c1-5,5-9,10-10
		l28.9-5c3-1,6-4,6-7v-6v-4C489.7,242.1,486.7,239.1,483.7,238.1z M81.4,215.2c7-32.9,22.9-63.7,46.8-87.6
		c31.9-31.9,73.7-49.8,118.5-50.8c19.9,0,39.8,3,58.8,9c12,4,16.9,16.9,11,27.9l-64.7,111.5c-5,8-12.9,12.9-22.9,12.9H100.3
		C88.3,238.1,79.4,226.2,81.4,215.2z M250.7,240.1c5,0,9,4,9,9s-4,9-9,9c-5,0-9-4-9-9S245.7,240.1,250.7,240.1z M305.4,412.4
		c-18.9,6-37.8,9-58.8,9c-44.8-1-87.6-18.9-118.5-50.8c-23.9-23.9-40.8-54.8-46.8-87.6c-2-12,7-22.9,18.9-22.9h128.5
		c9,0,17.9,5,22.9,12.9l64.7,111.5C322.4,395.5,317.4,409.4,305.4,412.4z M423,250.1c0,45.8-17.9,88.6-50.8,121.5c-3,3-5,5-8,7
		c-9,8-22.9,6-28.9-5l-64.7-111.5c-2-4-4-9-4-12.9s1-9,4-12.9l64.7-111.5c6-10,19.9-12.9,28.9-5c3,2,5,5,8,7
		C405,159.5,423,202.3,423,248.1C423,248.1,423,249.1,423,250.1C423,249.1,423,250.1,423,250.1z"/>
	<g>
		<path d="M250.7,344.7c-47.8,0-86.6-34.9-94.6-79.7h-32.9l-3,1c-2,1-3,2-3,4l1,4c0,2,2,3,4,3h15.9c1,0,1,1,2,1l0,0c0,1,0,2-1,2
			l-13.9,9c-2,1-2,3-2,5l1,4c1,2,2,3,4,2l14.9-3c1,0,2,0,2,1l0,0c0,1,0,2,0,2l-12,10c-1,1-2,3-1,5l2,3c1,2,3,2,5,2l14.9-5
			c1,0,2,0,2,1l0,0c0,1,0,2,0,2l-10,12c-1,1-1,4,0,5l3,3c1,1,3,2,5,1l13.9-8c1,0,2,0,2,0l0,0c1,1,1,1,0,2l-8,13.9c-1,2-1,4,1,5l3,3
			c1,1,4,1,5,0l12-10c1-1,1-1,2,0l0,0c1,0,1,1,1,2l-5,14.9c-1,2,0,4,2,5l3,2c2,1,4,1,5-1l10-12c1-1,1-1,2,0l0,0c1,0,1,1,1,2l-3,12.9
			c0,2,1,4,2,4l4,1c2,1,4,0,5-2l8-13.9c0-1,1-1,2-1l0,0c1,0,1,1,1,2v15.9c0,2,1,4,3,4l4,1c2,0,4-1,4-3l5-14.9c0-1,1-1,2-1l0,0
			c1,0,1,1,2,1l3,14.9c0,2,2,3,4,3h4c2,0,3-1,4-3l3-14.9c0-1,1-1,2-1l0,0c1,0,2,0,2,1l5,14.9c1,2,2,3,4,3l4-1c2,0,3-2,3-4v-15.9
			c0-1,1-1,1-2l0,0c1,0,2,0,2,1l8,13.9c1,2,3,2,5,2l4-1c2-1,3-2,2-4l-2-4l-16.9-27.9C273.6,342.7,262.6,344.7,250.7,344.7z"/>
		<path d="M335.3,353.7l3-3c1-1,2-3,1-5l-8-13.9c0-1,0-2,0-2l0,0c1-1,1-1,2,0l13.9,8c2,1,4,1,5-1l3-3c1-1,1-4,0-5l-10-12
			c-1-1-1-1,0-2l0,0c0-1,1-1,2-1l14.9,5c2,1,4,0,5-2l2-3c1-2,1-4-1-5l-12-10c-1-1-1-1,0-2l0,0c0-1,1-1,2-1l14.9,3c2,0,4-1,4-2l1-4
			c1-2,0-4-2-5l-13.9-8c-1,0-1-1-1-2l0,0c0-1,1-1,2-1h15.9c2,0,4-1,4-3l1-4c0-2-1-4-3-4l-14.9-5c-1,0-1-1-1-2l0,0c0-1,1-1,1-2
			l14.9-3c2,0,3-2,3-4v-1v-2c0-2-1-3-3-4l-14.9-3c-1,0-1-1-1-2l0,0c0-1,0-2,1-2l14.9-5c2-1,3-2,3-4l-1-4c0-2-2-3-4-3h-15.9
			c-1,0-1-1-2-1l0,0c0-1,0-2,1-2l13.9-8c2-1,2-3,2-5l-1-4c-1-2-2-3-4-2l-14.9,3c-1,0-2,0-2-1l0,0c0-1,0-2,0-2l12-10c1-1,2-3,1-5
			l-2-3c-1-2-3-2-5-2l-14.9,5c-1,0-2,0-2-1l0,0c0-1,0-2,0-2l10-12c1-1,1-4,0-5l-3-3c-1-1-3-2-5-1l-13.9,8c-1,0-2,0-2,0l0,0
			c-1-1-1-1,0-2l8-13.9c1-2,1-4-1-5l-3-3c-1-1-4-1-5,0l-2,2l-15.9,27.9c20.9,17.9,34.9,43.8,34.9,73.7s-13.9,55.8-34.9,73.7
			l15.9,27.9l2,2C332.3,354.7,334.3,354.7,335.3,353.7z"/>
		<path d="M298.5,123.6l-4-1c-2-1-4,0-5,2l-8,13.9c0,1-1,1-2,1l0,0c-1,0-1-1-1-2v-15.9c0-2-1-4-3-4l-4-1c-2,0-4,1-4,3l-5,14.9
			c0,1-1,1-2,1l0,0c-1,0-1-1-2-1l-3-14.9c0-2-2-3-4-3h-4c-2,0-3,1-4,3l-3,14.9c0,1-1,1-2,1l0,0c-1,0-2,0-2-1l-5-14.9c-1-2-2-3-4-3
			l-4,1c-2,0-3,2-3,4v15.9c0,1-1,1-1,2l0,0c-1,0-2,0-2-1l-7-14.9c-1-2-3-2-5-2l-4,1c-2,1-3,2-2,4l3,14.9c0,1,0,2-1,2l0,0
			c-1,0-2,0-2,0l-10-12c-1-1-3-2-5-1l-3,2c-2,1-2,3-2,5l5,14.9c0,1,0,2-1,2l0,0c-1,0-2,0-2,0l-12-10c-1-1-4-1-5,0l-3,3c-1,1-2,3-1,5
			l8,13.9c0,1,0,2,0,2l0,0c-1,1-1,1-2,0l-13.9-8c-2-1-4-1-5,1l-3,3c-1,1-1,4,0,5l10,12c1,1,1,1,0,2l0,0c0,1-1,1-2,1l-14.9-5
			c-2-1-4,0-5,2l-2,3c-1,2-1,4,1,5l12,10c1,1,1,1,0,2l0,0c0,1-1,1-2,1l-12.9-3c-2,0-4,1-4,2l-1,4c-1,2,0,4,2,5l13.9,8c1,0,1,1,1,2
			l0,0c0,1-1,1-2,1h-15.9c-2,0-4,1-4,3l-1,4c0,2,1,4,3,4l3,1h32.9c8-44.8,46.8-79.7,94.6-79.7c12,0,22.9,2,32.9,6l15.9-27.9l1-3
			C301.5,126.6,300.5,124.6,298.5,123.6z"/>
	</g>
</g>
</svg>
