<?xml version="1.0" encoding="utf-8"?>
<!-- Generator: Adobe Illustrator 21.1.0, SVG Export Plug-In . SVG Version: 6.00 Build 0)  -->
<svg version="1.1" id="Layer_1" xmlns="http://www.w3.org/2000/svg" xmlns:xlink="http://www.w3.org/1999/xlink" x="0px" y="0px"
	 viewBox="0 0 500 500" style="enable-background:new 0 0 500 500;" xml:space="preserve">
<g id="Skills">
	<path d="M475,231.6l-9,5l2,6l-198-5l93-178l3,3l9-5l-13-23H135l-125,215l125,216h234l121-210L475,231.6z M355,440.5H149l-110-191
		l110-191h186l-105,203l225,6L355,440.5z"/>
	<rect x="437.8" y="177.4" transform="matrix(0.8661 -0.4998 0.4998 0.8661 -34.3357 246.6626)" width="11" height="20"/>
	<rect x="453.9" y="205.5" transform="matrix(0.8661 -0.4998 0.4998 0.8661 -46.2271 258.4703)" width="11" height="20"/>
	<rect x="423.1" y="150.4" transform="matrix(0.8661 -0.4998 0.4998 0.8661 -22.8143 235.6798)" width="11" height="20"/>
	<rect x="375" y="68.6" transform="matrix(0.8661 -0.4998 0.4998 0.8661 11.6587 200.7133)" width="11" height="20"/>
	<rect x="407.1" y="123.6" transform="matrix(0.8661 -0.4998 0.4998 0.8661 -11.5208 224.1034)" width="11" height="20"/>
	<rect x="391" y="95.5" transform="matrix(0.8661 -0.4998 0.4998 0.8661 0.3668 212.2913)" width="11" height="20"/>
	<rect x="407" y="180.5" transform="matrix(0.8662 -0.4998 0.4998 0.8662 -40.4976 231.8079)" width="11" height="22"/>
	<rect x="424.1" y="209.5" transform="matrix(0.8662 -0.4998 0.4998 0.8662 -52.6945 244.2231)" width="11" height="22"/>
	<rect x="374.2" y="123.7" transform="matrix(0.8662 -0.4998 0.4998 0.8662 -16.472 207.8036)" width="11" height="22"/>
	<rect x="357.1" y="94.7" transform="matrix(0.8662 -0.4998 0.4998 0.8662 -4.2767 195.3862)" width="11" height="22"/>
	<rect x="389.9" y="151.5" transform="matrix(0.8661 -0.4998 0.4998 0.8661 -28.2988 219.3876)" width="11" height="22"/>
	<rect x="368.9" y="183.4" transform="matrix(0.8661 -0.4998 0.4998 0.8661 -46.5419 213.0368)" width="11" height="20"/>
	<rect x="385" y="211.5" transform="matrix(0.8661 -0.4998 0.4998 0.8661 -58.4314 224.8478)" width="11" height="20"/>
	<rect x="336.9" y="128.4" transform="matrix(0.8661 -0.4998 0.4998 0.8661 -23.3609 189.6479)" width="11" height="20"/>
	<rect x="353" y="156.5" transform="matrix(0.8662 -0.4998 0.4998 0.8662 -35.2546 201.4596)" width="11" height="20"/>
	<rect x="319.1" y="170.5" transform="matrix(0.8662 -0.4998 0.4998 0.8662 -48.0076 186.7388)" width="11" height="25"/>
	<rect x="338" y="204.6" transform="matrix(0.8662 -0.4998 0.4998 0.8662 -62.5148 200.7124)" width="11" height="25"/>
	<rect x="299.1" y="205.6" transform="matrix(0.8662 -0.4998 0.4998 0.8662 -68.2146 181.4161)" width="11" height="25"/>
</g>
</svg>
