<?xml version="1.0" encoding="utf-8"?>
<!-- Generator: Adobe Illustrator 21.1.0, SVG Export Plug-In . SVG Version: 6.00 Build 0)  -->
<svg version="1.1" id="Layer_1" xmlns="http://www.w3.org/2000/svg" xmlns:xlink="http://www.w3.org/1999/xlink" x="0px" y="0px"
	 viewBox="0 0 500 500" style="enable-background:new 0 0 500 500;" xml:space="preserve">
<g id="Syllabus">
	<path d="M321.7,113L321.7,113c0-6-5-11-11-11h-176c-6,0-11,5-11,11l0,0c0,6,5,11,11,11h176C316.7,124,321.7,119,321.7,113z"/>
	<path d="M310.7,280h-176c-6,0-11,5-11,11l0,0c0,6,5,11,11,11h176c6,0,11-5,11-11l0,0C321.7,285,316.7,280,310.7,280z"/>
	<path d="M134.7,391h176c6,0,11-5,11-11l0,0c0-6-5-11-11-11h-176c-6,0-11,5-11,11l0,0C123.7,386,128.7,391,134.7,391z"/>
	<path d="M123.7,202L123.7,202c0,6,5,11,11,11h121c9,0,14-11,8-18l0,0c-2-2-5-4-8-4h-121C128.7,191,123.7,196,123.7,202z"/>
	<path d="M398.7,424c0,24-20,44-44,44h-263c-24,0-44-20-44-44V76c0-24,20-44,44-44h263c24,0,44,20,44,44v45c0,10,13,15,19,7l0,0
		c2-2,3-5,3-7V76c0-36-30-66-66-66h-263c-37,0-66,30-66,66v348c0,36,30,66,66,66h263c37,0,66-30,66-66V208c0-10-12-15-19-7l0,0
		c-2,2-3,5-3,7C398.7,208,398.7,424,398.7,424z"/>
	<path d="M470.7,95c-5-4-11-3-15,1l-113,128l-56-64c-4-4-11-5-15-1c-4,4-5,11-1,15l65,74l0,0l1,1c2,2,5,3,7,3c0,0,0,0,1,0
		c3,0,6-1,8-4l120-138C475.7,105,474.7,98,470.7,95z"/>
</g>
</svg>
