<?xml version="1.0" encoding="utf-8"?>
<!-- Generator: Adobe Illustrator 21.1.0, SVG Export Plug-In . SVG Version: 6.00 Build 0)  -->
<svg version="1.1" id="Layer_1" xmlns="http://www.w3.org/2000/svg" xmlns:xlink="http://www.w3.org/1999/xlink" x="0px" y="0px"
	 viewBox="0 0 500 500" style="enable-background:new 0 0 500 500;" xml:space="preserve">
<g id="Title">
	<path d="M424,52.6h-32c-10,0-15,12-7,19l0,0c2,2,5,3,7,3h32c24,0,44,20,44,44v262c0,24-20,44-44,44H76c-24,0-44-20-44-44v-262
		c0-24,20-44,44-44h263c10,0,15-13,7-19l0,0c-2-2-5-3-7-3H76c-36,0-66,29-66,66v263c0,36,30,66,66,66h348c36,0,66-30,66-66v-263
		C490,81.6,460,52.6,424,52.6z"/>
	<path d="M432,221.6H68c-6,0-11,5-11,11s5,11,11,11h365c6,0,11-5,11-11S439,221.6,432,221.6z"/>
	<path d="M444,285.6c0-6-5-11-11-11H68c-6,0-11,5-11,11c0,6,5,11,11,11h365C439,296.6,444,291.6,444,285.6z"/>
	<path d="M68,326.6c-6,0-11,5-11,11c0,6,5,11,11,11h235c6,0,11-5,11-11c0-6-5-11-11-11H68z"/>
	<path d="M421,106.6H79c-7,0-12,5-12,12v51c0,7,5,12,12,12h341c7,0,12-5,12-12v-51C432,112.6,427,106.6,421,106.6z"/>
</g>
</svg>
