<?xml version="1.0" encoding="utf-8"?>
<!-- Generator: Adobe Illustrator 21.1.0, SVG Export Plug-In . SVG Version: 6.00 Build 0)  -->
<svg version="1.1" id="Layer_1" xmlns="http://www.w3.org/2000/svg" xmlns:xlink="http://www.w3.org/1999/xlink" x="0px" y="0px"
	 viewBox="0 0 500 500" style="enable-background:new 0 0 500 500;" xml:space="preserve">
<g id="twitter">
	<path d="M490,100.9c-19,8-37.9,13-56.9,15c21-13,35.9-30.9,42.9-53.9c-20,12-39.9,19-61.9,24c-19-21-42.9-30.9-71.9-30.9
		c-26.9,0-49.9,10-69.9,28.9c-19,19-28.9,41.9-28.9,69.9c0,7,1,15,2,23c-39.9-2-77.8-12-112.8-29.9s-64.9-41.9-89.8-72.8
		c-7,14-12,30.9-12,48.9c0,17,4,31.9,12,46.9c8,14,19,25.9,31.9,34.9c-16-1-30.9-5-43.9-12v1c0,24,7,44.9,22,62.9
		s33.9,28.9,55.9,33.9c-9,2-17,3-25.9,3c-6,0-12-1-19-2c6,20,18,35.9,34.9,48.9s35.9,19,56.9,20c-35.9,27.9-75.8,41.9-121.7,41.9
		c-9,0-17,0-24-1c45.9,28.9,95.8,43.9,150.7,43.9c34.9,0,67.9-6,97.8-17c30.9-11,56.9-25.9,78.8-43.9c22-19,39.9-39.9,55.9-63.9
		c16-24,26.9-48.9,34.9-75.8c8-25.9,12-52.9,12-78.8c0-6,0-10,0-13C460,137.8,476,120.8,490,100.9z"/>
</g>
</svg>
