<?xml version="1.0" encoding="utf-8"?>
<!-- Generator: Adobe Illustrator 21.1.0, SVG Export Plug-In . SVG Version: 6.00 Build 0)  -->
<svg version="1.1" id="Layer_1" xmlns="http://www.w3.org/2000/svg" xmlns:xlink="http://www.w3.org/1999/xlink" x="0px" y="0px"
	 viewBox="0 0 500 500" style="enable-background:new 0 0 500 500;" xml:space="preserve">
<g id="Unlock">
	<path d="M260,352v-44c0-6-5-10-10-10c-6,0-10,5-10,10v44c-9,5-16,14-16,24c0,15,12,27,27,27s27-12,27-27C277,365,270,356,260,352z"
		/>
	<path d="M400,210h-21v-69c0-72-58-131-129-131c-60,0-109,40-124,95c-2,8,5,15,13,14l0,0c4-1,7-4,8-8c12-45,53-79,103-79
		c59,0,107,50,107,109v69H143h-22h-21c-22,0-39,18-39,39v202c0,22,18,39,39,39h300c22,0,39-18,39-39V249C439,227,422,210,400,210z
		 M418,451c0,9-8,17-17,17H100c-9,0-17-8-17-17V249c0-9,8-17,17-17h300c10,0,17,8,17,17L418,451z"/>
</g>
</svg>
