<?xml version="1.0" encoding="utf-8"?>
<!-- Generator: Adobe Illustrator 21.1.0, SVG Export Plug-In . SVG Version: 6.00 Build 0)  -->
<svg version="1.1" id="Layer_1" xmlns="http://www.w3.org/2000/svg" xmlns:xlink="http://www.w3.org/1999/xlink" x="0px" y="0px"
	 viewBox="0 0 500 500" style="enable-background:new 0 0 500 500;" xml:space="preserve">
<g id="Video">
	<path d="M420,56c46,1,70,28,70,79c0,3,0,7,0,11c-2,44-35,103-98,179c-65,79-120,119-166,119c-28,0-52-24-70-73l-20-66l-20-66
		c-14-48-30-72-46-72c-4,0-16,7-37,21l-23-27l35-29l35-30c31-25,55-38,71-40c2,0,4,0,7,0c33,0,54,24,62,72c5,27,8,50,11,67
		s5,29,7,36c11,45,23,68,36,68c10,0,25-15,45-44c20-30,31-53,32-68c0-3,1-6,1-8c0-20-11-30-33-30c-11,0-23,2-35,7
		c23-70,66-104,130-105C417,56,418,56,420,56z"/>
</g>
</svg>
