<?xml version="1.0" encoding="utf-8"?>
<!-- Generator: Adobe Illustrator 21.1.0, SVG Export Plug-In . SVG Version: 6.00 Build 0)  -->
<svg version="1.1" id="Layer_1" xmlns="http://www.w3.org/2000/svg" xmlns:xlink="http://www.w3.org/1999/xlink" x="0px" y="0px"
	 viewBox="0 0 500 500" style="enable-background:new 0 0 500 500;" xml:space="preserve">
<g id="View">
	<circle cx="250.1" cy="250.4" r="35.9"/>
	<path d="M481.8,227.5c-27-34.9-61.9-62.9-100.8-82.9c-39.9-20-82.9-30-127.8-31c-1,0-6,0-7,0c-44.9,1-87.9,11-127.8,31
		c-38.9,20-73.9,47.9-100.8,82.9c-10,13-10,32,0,44.9c27,34.9,61.9,62.9,100.8,82.9c39.9,20,82.9,30,127.8,31c1,0,6,0,7,0
		c44.9-1,87.9-11,127.8-31c38.9-20,73.9-47.9,100.8-82.9C492.7,259.4,492.7,241.5,481.8,227.5z M127.3,338.3
		c-35.9-18-68.9-44.9-93.9-76.9c-5-6-5-15,0-21c25-32,57.9-58.9,93.9-76.9c10-5,21-10,32-13c-28,25-44.9,60.9-44.9,100.8
		s17,75.9,44.9,100.8C148.3,347.3,138.3,343.3,127.3,338.3z M466.8,261.4c-25,32-57.9,58.9-93.9,76.9c-10,5-21,10-32,13
		c25-23,41.9-54.9,44.9-90.9c0-6-4-11-10-11l0,0c-5,0-9,4-10,9c-5,61.9-56.9,109.8-120.8,107.8c-59.9-2-108.8-50.9-111.8-111.8
		c-3-65.9,50.9-120.8,115.8-120.8c44.9,0,83.9,25,102.8,61.9c2,4,7,6,11,5c6-2,9-8,6-14c-8-14-18-27-30-37.9c11,4,21,8,32,13
		c35.9,18,68.9,44.9,93.9,76.9C471.8,246.5,471.8,254.4,466.8,261.4z"/>
</g>
</svg>
