<?xml version="1.0" encoding="utf-8"?>
<!-- Generator: Adobe Illustrator 21.1.0, SVG Export Plug-In . SVG Version: 6.00 Build 0)  -->
<svg version="1.1" id="Layer_1" xmlns="http://www.w3.org/2000/svg" xmlns:xlink="http://www.w3.org/1999/xlink" x="0px" y="0px"
	 viewBox="0 0 500 500" style="enable-background:new 0 0 500 500;" xml:space="preserve">
<g id="warning">
	<path d="M485.5,428.4L288.1,33.5C280.2,17.8,265.1,10,250,10s-30.2,7.8-38.1,23.5L14.5,428.4C0.3,456.7,20.9,490,52.6,490h394.9
		C479.1,490,499.7,456.7,485.5,428.4z M461.9,456.4c-1.5,2.4-5.9,8.1-14.5,8.1H52.6c-8.6,0-13-5.6-14.5-8.1
		c-1.5-2.4-4.6-8.9-0.7-16.5L234.8,45c4.2-8.5,12-9.4,15.2-9.4s11,0.9,15.2,9.4l197.4,394.9C466.5,447.5,463.4,454,461.9,456.4z"/>
	<g>
		<circle cx="250" cy="394.5" r="18.6"/>
		<path d="M250,150.4L250,150.4c-11,0-19.7,9.3-19.2,20.2l8.6,156.7c0.3,5.6,4.9,10,10.5,10c5.6,0,10.2-4.4,10.5-10l8.6-156.7
			C269.7,159.6,261,150.4,250,150.4z"/>
	</g>
</g>
</svg>
