<?xml version="1.0" encoding="utf-8"?>
<!-- Generator: Adobe Illustrator 21.1.0, SVG Export Plug-In . SVG Version: 6.00 Build 0)  -->
<svg version="1.1" id="Layer_1" xmlns="http://www.w3.org/2000/svg" xmlns:xlink="http://www.w3.org/1999/xlink" x="0px" y="0px"
	 viewBox="0 0 500 500" style="enable-background:new 0 0 500 500;" xml:space="preserve">
<path id="Grade_Weight" d="M488.5,297L488.5,297C488.5,297,488.5,296,488.5,297C488.5,296,488.5,296,488.5,297c1-1,1-1,1-1l0,0l0,0
	l0,0l0,0l0,0l0,0l0,0l0,0c0,0,0,0,0-1l0,0c0,0,0,0,0-1l0,0l0,0c0,0,0,0,0-1l0,0l0,0l0,0l0,0l-74-269l0,0l0,0c0,0,0,0,0-1l0,0
	c0,0,0,0,0-1l0,0c0,0,0,0,0-1l0,0c0,0,0,0,0-1l0,0l0,0l0,0l0,0l0,0l0,0l0,0c0,0,0,0-1,0l0,0l0,0l0,0l0,0l0,0l0,0l0,0l0,0l0,0l0,0h-1
	l0,0l0,0l0,0l0,0l-142,27c-3-5-7-8-12-10l-1-18c0-5-3-9-8-9l0,0l0,0l0,0c-5,0-8,4-8,8l-1,18c-8,3-14,11-15,20l-135,29l0,0l0,0l0,0
	c0,0,0,0-1,0c0,0,0,0-1,0l0,0l0,0l0,0l0,0l0,0l0,0l0,0c0,0,0,0-1,1l0,0l0,0l0,0l0,0l0,0l0,0l0,0l0,0l0,0l0,0l0,0l-78,269l0,0l0,0
	l0,0l0,0c0,0,0,0,0,1l0,0l0,0c0,0,0,0,0,1l0,0c0,0,0,0,0,1l0,0l0,0l0,0l0,0l0,0l0,0l0,0l0,0l0,0l0,0l0,0l0,0l0,0l0,0l0,0l0,0l0,0
	l0,0l0,0l0,0l0,0l0,0l0,0l0,0l0,0l0,0l0,0l0,0l0,0l0,0l0,0l0,0l20,32c3,6,9,9,15,9h58l0,0h37c6,0,12-4,15-9l12-24l0,0c0,0,0,0,1,0
	l0,0c0,0,0,0,1,0l0,0l0,0l0,0l0,0l0,0l0,0l0,0l0,0l0,0l0,0l0,0l0,0l0,0l0,0l0,0l0,0l0,0l0,0l0,0l0,0l0,0l0,0l0,0c0,0,0,0,0-1l0,0
	c0,0,0,0,0-1l0,0c0,0,0,0,0-1l0,0l0,0c0,0,0,0,0-1l0,0c0,0,0,0,0-1l0,0l0,0l-66-262l126-26c2,4,6,7,10,9l-14,358c0,5,3,8,8,9v17h-8
	h-66l0,0c-5,0-8,4-8,8v8c0,5,4,8,8,8l0,0h66h116c5,0,8-4,8-8v-8c0-5-4-8-8-8h-74v-17c5,0,8-4,8-9l-14-358c7-4,13-11,14-19l121-25
	l-71,252l0,0l0,0l0,0l0,0c0,0,0,0,0,1l0,0l0,0l0,0l0,0c0,0,0,0,0,1l0,0c0,0,0,0,0,1l0,0l0,0l0,0l0,0l0,0l0,0l0,0l0,0l0,0l0,0l0,0
	l0,0l0,0l0,0l0,0l0,0l0,0l0,0l0,0l0,0l0,0l0,0l0,0l0,0l0,0l0,0l0,0l0,0l0,0l0,0l0,0l0,0l12,24c3,6,9,9,15,9h58l0,0h38c6,0,12-4,15-9
	l12-24l0,0h1l0,0h1l0,0l0,0l0,0l0,0l0,0l0,0l0,0l0,0l0,0C487.5,298,487.5,298,488.5,297C487.5,298,487.5,298,488.5,297
	C487.5,297,487.5,297,488.5,297L488.5,297z M391.4,283L391.4,283h-47l64-226l64,226H391.4z M76.5,349h-47l64-226l64,226H76.5z"/>
</svg>
